<svg xmlns="http://www.w3.org/2000/svg" style="display: none;">
    <symbol id="icon-offline" viewBox="0 0 109 90">
      <path d="M87.6938 88.1127L46.7313 46.9148C44.2986 47.4641 41.9649 48.2096 39.73 49.1512C37.4951 50.0929 35.3952 51.2307 33.4302 52.5648C31.7823 53.6634 29.9586 54.2331 27.9591 54.2739C25.9597 54.3147 24.2913 53.6273 22.9542 52.2116C21.5417 50.7991 20.8951 49.0916 21.0143 47.089C21.1336 45.0864 21.9764 43.4981 23.5427 42.3242C25.3476 40.9901 27.2513 39.7738 29.2539 38.6752C31.2565 37.5766 33.3156 36.5564 35.4313 35.6148L24.8375 25.021C22.7972 26.1196 20.8166 27.2779 18.8956 28.4958C16.9746 29.7137 15.1101 31.0273 13.3021 32.4366C11.7326 33.6922 9.94819 34.32 7.94872 34.32C5.94925 34.32 4.28093 33.6137 2.94376 32.2012C1.53126 30.7887 0.864246 29.1016 0.942719 27.1398C1.02119 25.178 1.84515 23.5693 3.41459 22.3137C5.14098 20.9012 6.90661 19.5484 8.71147 18.2552C10.5163 16.9619 12.4389 15.7644 14.4792 14.6627L7.88751 8.07103C7.02432 7.20783 6.59272 6.10922 6.59272 4.77519C6.59272 3.44117 7.02432 2.34256 7.88751 1.47936C8.7507 0.616168 9.84932 0.18457 11.1833 0.18457C12.5174 0.18457 13.616 0.616168 14.4792 1.47936L94.4031 81.4033C95.3448 82.345 95.8156 83.464 95.8156 84.7604C95.8156 86.0567 95.3448 87.1742 94.4031 88.1127C93.4615 88.9759 92.344 89.4279 91.0508 89.4687C89.7576 89.5095 88.6386 89.0575 87.6938 88.1127ZM54.5 83.8752C51.2042 83.8752 48.4184 82.7185 46.1427 80.4052C43.867 78.0918 42.7292 75.3249 42.7292 72.1044C42.7292 68.8085 43.867 66.0228 46.1427 63.7471C48.4184 61.4714 51.2042 60.3335 54.5 60.3335C57.7958 60.3335 60.5816 61.4714 62.8573 63.7471C65.133 66.0228 66.2708 68.8085 66.2708 72.1044C66.2708 75.3217 65.133 78.0886 62.8573 80.4052C60.5816 82.7216 57.7958 83.8783 54.5 83.8752ZM86.6344 51.5054C85.3788 52.761 83.9083 53.3699 82.2227 53.3322C80.5371 53.2946 79.065 52.6464 77.8063 51.3877L76.6292 50.2106L75.4521 49.0335L64.1521 37.7335C63.132 36.7134 62.9358 35.654 63.5636 34.5554C64.1913 33.4568 65.2899 33.1037 66.8594 33.496C70.3906 34.3592 73.7445 35.5755 76.9211 37.145C80.0976 38.7144 83.0608 40.5585 85.8104 42.6773C87.2229 43.7759 88.0281 45.2088 88.2258 46.976C88.4236 48.7432 87.8931 50.253 86.6344 51.5054ZM106.056 32.2012C104.722 33.6137 103.074 34.3388 101.113 34.3765C99.1507 34.4142 97.3851 33.8068 95.8156 32.5544C90.1656 27.9245 83.8298 24.3352 76.8081 21.7864C69.7864 19.2376 62.3504 17.9617 54.5 17.9585C52.8521 17.9585 51.2638 18.0182 49.7352 18.1374C48.2065 18.2567 46.6559 18.4325 45.0833 18.6648C43.1215 18.9787 41.3559 18.5675 39.7865 17.4312C38.217 16.2949 37.2754 14.7443 36.9615 12.7794C36.6476 10.8144 37.0792 9.04879 38.2563 7.48249C39.4333 5.91618 41.0028 4.97452 42.9646 4.65749C44.8479 4.3436 46.7517 4.12858 48.6758 4.01245C50.5999 3.89631 52.5413 3.83667 54.5 3.83353C64.309 3.83353 73.5499 5.46261 82.2227 8.72078C90.8954 11.9789 98.683 16.4707 105.585 22.196C107.155 23.5301 107.979 25.178 108.057 27.1398C108.136 29.1016 107.469 30.7887 106.056 32.2012Z" 
      fill="#0484FC"/>
    </symbol>

    <symbol id="icon-back" viewBox="0 0 19 18">
      <path d="M0.678589 12.2144H12.8929C14.3326 12.2144 15.7134 11.6726 16.7315 10.7081C17.7495 9.74364 18.3214 8.43554 18.3214 7.07157C18.3214 5.7076 17.7495 4.39949 16.7315 3.43502C15.7134 2.47055 14.3326 1.92871 12.8929 1.92871H8.82145" 
      stroke="#0484FC" stroke-linecap="round" stroke-linejoin="round"/>
      <path d="M4.75002 8.35742L0.678589 12.2146L4.75002 16.0717" 
      stroke="#0484FC" stroke-linecap="round" stroke-linejoin="round"/>
    </symbol>
</svg>


